700 0 1 0           
15 SolidWorks 2009 14 ACIS 18.0.1 NT 24 Fri Nov 02 09:20:10 2012 
25.399999999999999 9.9999999999999995e-007 1e-010 
-0 body $1 -1 $-1 $2 $-1 $-1 #
-1 name_attrib-gen-attrib $-1 -1 $-1 $-1 $0 keep keep_kept ignore copy @9 98466A007 #
-2 lump $3 -1 $-1 $-1 $4 $0 #
-3 rgb_color-st-attrib $-1 -1 $-1 $-1 $2 0.75294117647058822 0.75294117647058822 0.75294117647058822 #
-4 shell $-1 -1 $-1 $-1 $-1 $5 $-1 $2 #
-5 face $-1 -1 $-1 $6 $7 $4 $-1 $8 reversed single #
-6 face $-1 -1 $-1 $9 $10 $4 $-1 $11 reversed single #
-7 loop $-1 -1 $-1 $-1 $12 $5 #
-8 cone-surface $-1 -1 $-1 0 0.089499703180562162 0 -0 -1 -0 0 0 -0.17392083586765561 1 I I 0.16776491505325133 0.9858270301007046 0.17392083586765561 forward I I I I #
-9 face $-1 -1 $-1 $13 $14 $4 $-1 $15 forward single #
-10 loop $-1 -1 $-1 $-1 $16 $6 #
-11 cone-surface $-1 -1 $-1 0 0 0 -0 -1 -0 0 0 -0.18875 1 I I 0 1 0.18875 forward I I I I #
-12 coedge $-1 -1 $-1 $17 $18 $19 $20 reversed $7 $-1 #
-13 face $-1 -1 $-1 $21 $22 $4 $-1 $23 forward single #
-14 loop $-1 -1 $-1 $-1 $24 $9 #
-15 cone-surface $-1 -1 $-1 0 -0.015087112802704404 0 0 1 0 0 0 0.11393888884746801 1 I I 0.64278760968654103 0.76604444311897668 0.11393888884746801 forward I I I I #
-16 coedge $-1 -1 $-1 $25 $26 $27 $28 reversed $10 $-1 #
-17 coedge $-1 -1 $-1 $27 $12 $29 $30 forward $7 $-1 #
-18 coedge $-1 -1 $-1 $12 $27 $31 $32 reversed $7 $-1 #
-19 coedge $-1 -1 $-1 $33 $34 $12 $20 forward $35 $-1 #
-20 edge $-1 -1 $-1 $36 0 $37 3.1415926535897931 $19 $38 forward @7 unknown #
-21 face $-1 -1 $-1 $39 $40 $4 $-1 $41 forward single #
-22 loop $-1 -1 $-1 $-1 $42 $13 #
-23 cone-surface $-1 -1 $-1 0 0.094742356775976269 0 -0 -1 -0 0 0 -0.20472793055830266 1 I I 0.16776491505325133 0.9858270301007046 0.20472793055830266 forward I I I I #
-24 coedge $-1 -1 $-1 $43 $44 $45 $46 reversed $14 $-1 #
-25 coedge $-1 -1 $-1 $47 $16 $48 $49 forward $10 $-1 #
-26 coedge $-1 -1 $-1 $16 $47 $50 $51 reversed $10 $-1 #
-27 coedge $-1 -1 $-1 $18 $17 $16 $28 forward $7 $-1 #
-28 edge $-1 -1 $-1 $52 -3.1415926535897931 $53 0 $27 $54 forward @7 unknown #
-29 coedge $-1 -1 $-1 $55 $56 $17 $30 reversed $57 $-1 #
-30 edge $-1 -1 $-1 $36 0.00070909634473102486 $52 0.0022451700872139378 $17 $58 forward @7 unknown #
-31 coedge $-1 -1 $-1 $56 $55 $18 $32 forward $57 $-1 #
-32 edge $-1 -1 $-1 $37 0.00070909634473102486 $53 0.0022451700872139378 $31 $59 forward @7 unknown #
-33 coedge $-1 -1 $-1 $60 $19 $43 $61 reversed $35 $-1 #
-34 coedge $-1 -1 $-1 $19 $60 $44 $62 forward $35 $-1 #
-35 loop $-1 -1 $-1 $-1 $33 $63 #
-36 vertex $-1 -1 $-1 $30 $64 #
-37 vertex $-1 -1 $-1 $32 $65 #
-38 ellipse-curve $-1 -1 $-1 0 0.061978193590741228 0 -0 -1 -0 0 0 0.17860435901877258 1 I I #
-39 face $-1 -1 $-1 $66 $67 $4 $-1 $68 reversed single #
-40 loop $-1 -1 $-1 $-1 $69 $21 #
-41 cone-surface $-1 -1 $-1 0 0 0 -0 -1 -0 0 0 -0.22 1 I I 0 1 0.22 forward I I I I #
-42 coedge $-1 -1 $-1 $70 $71 $72 $73 forward $22 $-1 #
-43 coedge $-1 -1 $-1 $74 $24 $33 $61 forward $14 $-1 #
-44 coedge $-1 -1 $-1 $24 $74 $34 $62 reversed $14 $-1 #
-45 coedge $-1 -1 $-1 $75 $75 $24 $46 forward $76 $-1 #
-46 edge $-1 -1 $-1 $77 -3.1415926535897931 $78 0 $45 $79 forward @7 unknown #
-47 coedge $-1 -1 $-1 $26 $25 $80 $81 forward $10 $-1 #
-48 coedge $-1 -1 $-1 $82 $83 $25 $49 reversed $84 $-1 #
-49 edge $-1 -1 $-1 $52 -5.9943101637222305e-005 $85 2.255112600563908e-019 $25 $86 forward @7 unknown #
-50 coedge $-1 -1 $-1 $83 $82 $26 $51 forward $84 $-1 #
-51 edge $-1 -1 $-1 $53 -5.9943101637222305e-005 $87 2.255112600563908e-019 $50 $88 forward @7 unknown #
-52 vertex $-1 -1 $-1 $30 $89 #
-53 vertex $-1 -1 $-1 $32 $90 #
-54 ellipse-curve $-1 -1 $-1 0 0.0023599646313867051 0 -0 -1 -0 0 0 -0.18875 1 I I #
-55 coedge $-1 -1 $-1 $31 $29 $74 $91 reversed $57 $-1 #
-56 coedge $-1 -1 $-1 $29 $31 $82 $92 forward $57 $-1 #
-57 loop $-1 -1 $-1 $-1 $29 $93 #
-58 straight-curve $-1 -1 $-1 2.129845606656299e-017 0.089499703180562162 0.17392083586765561 8.0884244457749221e-016 -38.812087799240352 6.6049179154823374 I I #
-59 straight-curve $-1 -1 $-1 0 0.089499703180562162 -0.17392083586765561 0 -38.812087799240352 -6.6049179154823374 I I #
-60 coedge $-1 -1 $-1 $34 $33 $75 $94 reversed $35 $-1 #
-61 edge $-1 -1 $-1 $77 0.00050024860650176896 $37 0.0025552809631039903 $43 $95 forward @7 unknown #
-62 edge $-1 -1 $-1 $78 0.00050024860650176896 $36 0.0025552809631039903 $34 $96 forward @7 unknown #
-63 face $-1 -1 $-1 $97 $35 $4 $-1 $98 forward single #
-64 point $-1 -1 $-1 0 0.061978193590741228 0.17860435901877261 #
-65 point $-1 -1 $-1 2.1872003287476194e-017 0.061978193590741228 -0.17860435901877261 #
-66 face $-1 -1 $-1 $99 $100 $4 $-1 $101 reversed single #
-67 loop $-1 -1 $-1 $-1 $102 $39 #
-68 cone-surface $-1 -1 $-1 0 0 0 -0 -1 -0 0 0 -0.089999999999999997 1 I I 0 1 0.089999999999999997 forward I I I I #
-69 coedge $-1 -1 $-1 $103 $104 $105 $106 forward $40 $-1 #
-70 coedge $-1 -1 $-1 $105 $42 $107 $108 forward $22 $-1 #
-71 coedge $-1 -1 $-1 $42 $105 $109 $110 reversed $22 $-1 #
-72 coedge $-1 -1 $-1 $111 $112 $42 $73 reversed $113 $-1 #
-73 edge $-1 -1 $-1 $114 0 $115 3.1415926535897931 $42 $116 forward @7 unknown #
-74 coedge $-1 -1 $-1 $44 $43 $55 $91 forward $14 $-1 #
-75 coedge $-1 -1 $-1 $45 $45 $60 $94 forward $76 $-1 #
-76 loop $-1 -1 $-1 $117 $75 $118 #
-77 vertex $-1 -1 $-1 $61 $119 #
-78 vertex $-1 -1 $-1 $46 $120 #
-79 ellipse-curve $-1 -1 $-1 0 0 0 -0 -1 -0 0 0 0.12659847963574736 1 I I #
-80 coedge $-1 -1 $-1 $121 $121 $47 $81 reversed $122 $-1 #
-81 edge $-1 -1 $-1 $85 -1.2246063538223773e-016 $87 3.1415926535897931 $47 $123 forward @7 unknown #
-82 coedge $-1 -1 $-1 $50 $48 $56 $92 reversed $84 $-1 #
-83 coedge $-1 -1 $-1 $48 $50 $121 $124 forward $84 $-1 #
-84 loop $-1 -1 $-1 $-1 $48 $97 #
-85 vertex $-1 -1 $-1 $49 $125 #
-86 straight-curve $-1 -1 $-1 2.3114444928397369e-017 0 0.18875 -0 -39.370078740157481 -0 I I #
-87 vertex $-1 -1 $-1 $81 $126 #
-88 straight-curve $-1 -1 $-1 0 0 -0.18875 -0 -39.370078740157481 -0 I I #
-89 point $-1 -1 $-1 2.3114444928397369e-017 0.0023599646313867051 0.18875 #
-90 point $-1 -1 $-1 0 0.0023599646313867051 -0.18875 #
-91 edge $-1 -1 $-1 $37 -3.1415926535897931 $36 0 $74 $127 forward @7 unknown #
-92 edge $-1 -1 $-1 $53 0 $52 3.1415926535897931 $56 $128 forward @7 unknown #
-93 face $-1 -1 $-1 $-1 $57 $4 $-1 $129 reversed single #
-94 edge $-1 -1 $-1 $78 0 $77 3.1415926535897931 $75 $130 forward @7 unknown #
-95 straight-curve $-1 -1 $-1 1.3953028723007094e-017 -0.015087112802704404 -0.11393888884746801 3.0990621692143169e-015 30.159230044054201 -25.306598806556735 I I #
-96 straight-curve $-1 -1 $-1 0 -0.015087112802704404 0.11393888884746801 0 30.159230044054201 25.306598806556735 I I #
-97 face $-1 -1 $-1 $93 $84 $4 $-1 $131 reversed single #
-98 cone-surface $-1 -1 $-1 0 -0.015087112802704404 0 0 1 0 0 0 0.11393888884746801 1 I I 0.64278760968654103 0.76604444311897668 0.11393888884746801 forward I I I I #
-99 face $-1 -1 $-1 $132 $113 $4 $-1 $133 forward single #
-100 loop $-1 -1 $-1 $-1 $134 $66 #
-101 cone-surface $-1 -1 $-1 0 0.0050000000000000018 0 0 1 0 0 0 0.089999999999999997 1 I I 0.64278760968654103 0.76604444311897668 0.089999999999999997 forward I I I I #
-102 coedge $-1 -1 $-1 $135 $136 $134 $137 reversed $67 $-1 #
-103 coedge $-1 -1 $-1 $138 $69 $139 $140 forward $40 $-1 #
-104 coedge $-1 -1 $-1 $69 $138 $141 $142 reversed $40 $-1 #
-105 coedge $-1 -1 $-1 $71 $70 $69 $106 reversed $22 $-1 #
-106 edge $-1 -1 $-1 $143 0 $144 3.1415926535897931 $69 $145 forward @7 unknown #
-107 coedge $-1 -1 $-1 $146 $147 $70 $108 reversed $148 $-1 #
-108 edge $-1 -1 $-1 $115 0 $144 0.0023122269855767137 $70 $149 forward @7 unknown #
-109 coedge $-1 -1 $-1 $147 $146 $71 $110 forward $148 $-1 #
-110 edge $-1 -1 $-1 $114 0 $143 0.0023122269855767137 $109 $150 forward @7 unknown #
-111 coedge $-1 -1 $-1 $151 $72 $152 $153 reversed $113 $-1 #
-112 coedge $-1 -1 $-1 $72 $151 $154 $155 forward $113 $-1 #
-113 loop $-1 -1 $-1 $-1 $151 $99 #
-114 vertex $-1 -1 $-1 $110 $156 #
-115 vertex $-1 -1 $-1 $108 $157 #
-116 ellipse-curve $-1 -1 $-1 0 0.094742356775976269 0 -0 -1 -0 0 0 -0.20472793055830266 1 I I #
-117 loop $-1 -1 $-1 $-1 $158 $118 #
-118 face $-1 -1 $-1 $159 $76 $4 $-1 $160 reversed single #
-119 point $-1 -1 $-1 1.8687666771047549e-017 -8.5370249802008226e-018 -0.12659847963574736 #
-120 point $-1 -1 $-1 0 -8.5370249802008226e-018 0.12659847963574736 #
-121 coedge $-1 -1 $-1 $80 $80 $83 $124 reversed $122 $-1 #
-122 loop $-1 -1 $-1 $-1 $121 $132 #
-123 ellipse-curve $-1 -1 $-1 0 0 0 -0 -1 -0 0 0 0.18875 1 I I #
-124 edge $-1 -1 $-1 $87 -3.1415926535897931 $85 -1.2246063538223773e-016 $83 $161 forward @7 unknown #
-125 point $-1 -1 $-1 2.3114444928397369e-017 -8.8783960652122368e-018 0.18875 #
-126 point $-1 -1 $-1 0 -8.8783960652122368e-018 -0.18875 #
-127 ellipse-curve $-1 -1 $-1 0 0.061978193590741228 0 -0 -1 -0 0 0 0.17860435901877258 1 I I #
-128 ellipse-curve $-1 -1 $-1 0 0.0023599646313867051 0 -0 -1 -0 0 0 -0.18875 1 I I #
-129 cone-surface $-1 -1 $-1 0 0.089499703180562162 0 -0 -1 -0 0 0 -0.17392083586765561 1 I I 0.16776491505325133 0.9858270301007046 0.17392083586765561 forward I I I I #
-130 ellipse-curve $-1 -1 $-1 0 0 0 -0 -1 -0 0 0 0.12659847963574736 1 I I #
-131 cone-surface $-1 -1 $-1 0 0 0 -0 -1 -0 0 0 -0.18875 1 I I 0 1 0.18875 forward I I I I #
-132 face $-1 -1 $-1 $162 $163 $4 $-1 $164 reversed single #
-133 torus-surface $-1 -1 $-1 0 0.091666666666666674 0 -0 -1 -0 0.1866544350064564 0.01833333333333333 0 0 -1 forward_v I I I I #
-134 coedge $-1 -1 $-1 $165 $166 $102 $137 forward $100 $-1 #
-135 coedge $-1 -1 $-1 $167 $102 $168 $169 forward $67 $-1 #
-136 coedge $-1 -1 $-1 $102 $167 $170 $171 reversed $67 $-1 #
-137 edge $-1 -1 $-1 $172 -3.1415926535897931 $173 1.7866345883086647e-016 $134 $174 forward @7 unknown #
-138 coedge $-1 -1 $-1 $104 $103 $175 $176 reversed $40 $-1 #
-139 coedge $-1 -1 $-1 $177 $178 $103 $140 reversed $179 $-1 #
-140 edge $-1 -1 $-1 $144 -0.00012700000000000005 $180 4.9768002219341413e-019 $103 $181 forward @7 unknown #
-141 coedge $-1 -1 $-1 $178 $177 $104 $142 forward $179 $-1 #
-142 edge $-1 -1 $-1 $143 -0.00012700000000000005 $182 4.9768002219341413e-019 $141 $183 forward @7 unknown #
-143 vertex $-1 -1 $-1 $110 $184 #
-144 vertex $-1 -1 $-1 $108 $185 #
-145 ellipse-curve $-1 -1 $-1 0 0.0050000000000000018 0 -0 -1 -0 0 0 -0.22 1 I I #
-146 coedge $-1 -1 $-1 $109 $107 $186 $187 forward $148 $-1 #
-147 coedge $-1 -1 $-1 $107 $109 $177 $188 reversed $148 $-1 #
-148 loop $-1 -1 $-1 $-1 $107 $189 #
-149 straight-curve $-1 -1 $-1 2.5071112456660385e-017 0.094742356775976269 0.20472793055830266 8.0884244457749221e-016 -38.812087799240352 6.6049179154823374 I I #
-150 straight-curve $-1 -1 $-1 0 0.094742356775976269 -0.20472793055830266 0 -38.812087799240352 -6.6049179154823374 I I #
-151 coedge $-1 -1 $-1 $112 $111 $190 $191 forward $113 $-1 #
-152 coedge $-1 -1 $-1 $186 $192 $111 $153 forward $193 $-1 #
-153 edge $-1 -1 $-1 $194 0.69813170079773457 $114 2.9730306421131916 $152 $195 forward @7 unknown #
-154 coedge $-1 -1 $-1 $192 $186 $112 $155 reversed $193 $-1 #
-155 edge $-1 -1 $-1 $196 0.69813170079773457 $115 2.9730306421131916 $112 $197 forward @7 unknown #
-156 point $-1 -1 $-1 0 0.094742356775976269 -0.20472793055830266 #
-157 point $-1 -1 $-1 2.5071112456660385e-017 0.094742356775976269 0.20472793055830266 #
-158 coedge $-1 -1 $-1 $198 $198 $199 $200 reversed $117 $-1 #
-159 face $-1 -1 $-1 $189 $179 $4 $-1 $201 forward single #
-160 plane-surface $-1 -1 $-1 -0.089999999999999997 -8.8783960652122368e-018 0 0 1 0 0 0 39.370078740157481 forward_v I I I I #
-161 ellipse-curve $-1 -1 $-1 0 0 0 -0 -1 -0 0 0 0.18875 1 I I #
-162 face $-1 -1 $-1 $202 $193 $4 $-1 $203 forward single #
-163 loop $-1 -1 $-1 $122 $175 $132 #
-164 plane-surface $-1 -1 $-1 -0.089999999999999997 -8.8783960652122368e-018 0 0 1 0 0 0 39.370078740157481 forward_v I I I I #
-165 coedge $-1 -1 $-1 $204 $134 $205 $206 forward $100 $-1 #
-166 coedge $-1 -1 $-1 $134 $204 $207 $208 reversed $100 $-1 #
-167 coedge $-1 -1 $-1 $136 $135 $198 $209 forward $67 $-1 #
-168 coedge $-1 -1 $-1 $210 $199 $135 $169 reversed $211 $-1 #
-169 edge $-1 -1 $-1 $172 -0.00012700000000000005 $212 -4.665750208063256e-020 $135 $213 forward @7 unknown #
-170 coedge $-1 -1 $-1 $199 $210 $136 $171 forward $211 $-1 #
-171 edge $-1 -1 $-1 $173 -0.00012700000000000005 $214 -4.665750208063256e-020 $170 $215 forward @7 unknown #
-172 vertex $-1 -1 $-1 $169 $216 #
-173 vertex $-1 -1 $-1 $171 $217 #
-174 ellipse-curve $-1 -1 $-1 0 0.0050000000000000018 0 -0 -1 -0 0 0 -0.089999999999999997 1 I I #
-175 coedge $-1 -1 $-1 $218 $218 $138 $176 forward $163 $-1 #
-176 edge $-1 -1 $-1 $182 0 $180 3.1415926535897931 $175 $219 forward @7 unknown #
-177 coedge $-1 -1 $-1 $141 $139 $147 $188 forward $179 $-1 #
-178 coedge $-1 -1 $-1 $139 $141 $218 $220 reversed $179 $-1 #
-179 loop $-1 -1 $-1 $-1 $139 $159 #
-180 vertex $-1 -1 $-1 $140 $221 #
-181 straight-curve $-1 -1 $-1 2.6941339784092304e-017 0 0.22 -0 -39.370078740157481 -0 I I #
-182 vertex $-1 -1 $-1 $220 $222 #
-183 straight-curve $-1 -1 $-1 0 0 -0.22 -0 -39.370078740157481 -0 I I #
-184 point $-1 -1 $-1 0 0.0050000000000000018 -0.22 #
-185 point $-1 -1 $-1 2.6941339784092304e-017 0.0050000000000000018 0.22 #
-186 coedge $-1 -1 $-1 $154 $152 $146 $187 reversed $193 $-1 #
-187 edge $-1 -1 $-1 $115 -3.1415926535897931 $114 0 $146 $223 forward @7 unknown #
-188 edge $-1 -1 $-1 $144 -3.1415926535897931 $143 0 $177 $224 forward @7 unknown #
-189 face $-1 -1 $-1 $63 $148 $4 $-1 $225 forward single #
-190 coedge $-1 -1 $-1 $205 $207 $151 $191 reversed $226 $-1 #
-191 edge $-1 -1 $-1 $194 0 $196 3.1415926535897931 $151 $227 forward @7 unknown #
-192 coedge $-1 -1 $-1 $152 $154 $204 $228 forward $193 $-1 #
-193 loop $-1 -1 $-1 $-1 $154 $162 #
-194 vertex $-1 -1 $-1 $206 $229 #
-195 ellipse-curve $-1 -1 $-1 0 0.091666666666666674 -0.1866544350064564 -1 0 0 0 0 0.01833333333333332 1 I I #
-196 vertex $-1 -1 $-1 $208 $230 #
-197 ellipse-curve $-1 -1 $-1 2.2857820707803248e-017 0.091666666666666674 0.1866544350064564 1 0 -1.2246063538223773e-016 -2.2451116486743571e-018 0 -0.01833333333333332 1 I I #
-198 coedge $-1 -1 $-1 $158 $158 $167 $209 reversed $117 $-1 #
-199 coedge $-1 -1 $-1 $168 $170 $158 $200 forward $211 $-1 #
-200 edge $-1 -1 $-1 $214 0 $212 3.1415926535897931 $199 $231 forward @7 unknown #
-201 cone-surface $-1 -1 $-1 0 0 0 -0 -1 -0 0 0 -0.22 1 I I 0 1 0.22 forward I I I I #
-202 face $-1 -1 $-1 $232 $226 $4 $-1 $233 reversed single #
-203 torus-surface $-1 -1 $-1 0 0.091666666666666674 0 -0 -1 -0 0.1866544350064564 0.01833333333333333 0 0 -1 forward_v I I I I #
-204 coedge $-1 -1 $-1 $166 $165 $192 $228 reversed $100 $-1 #
-205 coedge $-1 -1 $-1 $234 $190 $165 $206 reversed $226 $-1 #
-206 edge $-1 -1 $-1 $173 1.0113427486485798e-035 $194 0.0032643773078350155 $165 $235 forward @7 unknown #
-207 coedge $-1 -1 $-1 $190 $234 $166 $208 forward $226 $-1 #
-208 edge $-1 -1 $-1 $172 0 $196 0.0032643773078350155 $207 $236 forward @7 unknown #
-209 edge $-1 -1 $-1 $212 -3.1415926535897931 $214 0 $167 $237 forward @7 unknown #
-210 coedge $-1 -1 $-1 $170 $168 $234 $238 reversed $211 $-1 #
-211 loop $-1 -1 $-1 $-1 $168 $232 #
-212 vertex $-1 -1 $-1 $169 $239 #
-213 straight-curve $-1 -1 $-1 1.1021457184401394e-017 0 0.089999999999999997 -0 -39.370078740157481 -0 I I #
-214 vertex $-1 -1 $-1 $209 $240 #
-215 straight-curve $-1 -1 $-1 0 0 -0.089999999999999997 -0 -39.370078740157481 -0 I I #
-216 point $-1 -1 $-1 0 0.0050000000000000018 0.089999999999999997 #
-217 point $-1 -1 $-1 1.6079711294777982e-017 0.0050000000000000018 -0.089999999999999997 #
-218 coedge $-1 -1 $-1 $175 $175 $178 $220 forward $163 $-1 #
-219 ellipse-curve $-1 -1 $-1 0 0 0 -0 -1 -0 0 0 -0.22 1 I I #
-220 edge $-1 -1 $-1 $180 -3.1415926535897931 $182 0 $218 $241 forward @7 unknown #
-221 point $-1 -1 $-1 2.6941339784092304e-017 -1.9593701661158036e-017 0.22 #
-222 point $-1 -1 $-1 0 -1.9593701661158036e-017 -0.22 #
-223 ellipse-curve $-1 -1 $-1 0 0.094742356775976269 0 -0 -1 -0 0 0 -0.20472793055830266 1 I I #
-224 ellipse-curve $-1 -1 $-1 0 0.0050000000000000018 0 -0 -1 -0 0 0 -0.22 1 I I #
-225 cone-surface $-1 -1 $-1 0 0.094742356775976269 0 -0 -1 -0 0 0 -0.20472793055830266 1 I I 0.16776491505325133 0.9858270301007046 0.20472793055830266 forward I I I I #
-226 loop $-1 -1 $-1 $-1 $205 $202 #
-227 ellipse-curve $-1 -1 $-1 0 0.10345110617758659 0 -0 -1 -0 0 0 -0.17261028688260852 1 I I #
-228 edge $-1 -1 $-1 $196 -3.1415926535897931 $194 0 $192 $242 forward @7 unknown #
-229 point $-1 -1 $-1 0 0.10345110617758659 -0.17261028688260852 #
-230 point $-1 -1 $-1 2.3104538930907482e-017 0.10345110617758659 0.17261028688260852 #
-231 ellipse-curve $-1 -1 $-1 0 0 0 -0 -1 -0 0 0 -0.089999999999999997 1 I I #
-232 face $-1 -1 $-1 $118 $211 $4 $-1 $243 reversed single #
-233 cone-surface $-1 -1 $-1 0 0.0050000000000000018 0 0 1 0 0 0 0.089999999999999997 1 I I 0.64278760968654103 0.76604444311897668 0.089999999999999997 forward I I I I #
-234 coedge $-1 -1 $-1 $207 $205 $210 $238 forward $226 $-1 #
-235 straight-curve $-1 -1 $-1 1.1021457184401394e-017 0.0050000000000000018 -0.089999999999999997 3.0990621692143169e-015 30.159230044054201 -25.306598806556735 I I #
-236 straight-curve $-1 -1 $-1 0 0.0050000000000000018 0.089999999999999997 0 30.159230044054201 25.306598806556735 I I #
-237 ellipse-curve $-1 -1 $-1 0 0 0 -0 -1 -0 0 0 -0.089999999999999997 1 I I #
-238 edge $-1 -1 $-1 $173 1.7866345883086647e-016 $172 3.1415926535897931 $234 $244 forward @7 unknown #
-239 point $-1 -1 $-1 1.1021457184401394e-017 1.8369095307335654e-018 0.089999999999999997 #
-240 point $-1 -1 $-1 0 1.8369095307335654e-018 -0.089999999999999997 #
-241 ellipse-curve $-1 -1 $-1 0 0 0 -0 -1 -0 0 0 -0.22 1 I I #
-242 ellipse-curve $-1 -1 $-1 0 0.10345110617758659 0 -0 -1 -0 0 0 -0.17261028688260852 1 I I #
-243 cone-surface $-1 -1 $-1 0 0 0 -0 -1 -0 0 0 -0.089999999999999997 1 I I 0 1 0.089999999999999997 forward I I I I #
-244 ellipse-curve $-1 -1 $-1 0 0.0050000000000000018 0 -0 -1 -0 0 0 -0.089999999999999997 1 I I #
End-of-ACIS-data 